<mxfile host="app.diagrams.net" modified="2024-06-24T11:31:13.758Z" agent="Mozilla/5.0 (Macintosh; Intel Mac OS X 10.15; rv:128.0) Gecko/20100101 Firefox/128.0" etag="zF0FqToyfVw9vJDgCELf" version="24.6.2" type="device">
  <diagram name="Page-1" id="efa7a0a1-bf9b-a30e-e6df-94a7791c09e9">
    <mxGraphModel dx="1417" dy="1157" grid="1" gridSize="10" guides="1" tooltips="1" connect="1" arrows="1" fold="1" page="1" pageScale="1" pageWidth="826" pageHeight="1169" background="none" math="0" shadow="0">
      <root>
        <mxCell id="0" />
        <mxCell id="1" parent="0" />
        <mxCell id="pgrex3QpOTlpph6fDjvK-1" value="POST / &lt;font color=&quot;#67ab9f&quot;&gt;HTTP&lt;/font&gt;/&lt;font color=&quot;#cc5b91&quot;&gt;1.1&lt;/font&gt;&lt;br&gt;&lt;font color=&quot;#67ab9f&quot;&gt;Host&lt;/font&gt;: localhost:8000&lt;br&gt;&lt;font color=&quot;#67ab9f&quot;&gt;User-Agent&lt;/font&gt;: curl/8.6.0&lt;br&gt;&lt;font color=&quot;#67ab9f&quot;&gt;Accept&lt;/font&gt;: */*&lt;br&gt;&lt;font color=&quot;#67ab9f&quot;&gt;Content-Type&lt;/font&gt;: application/json&lt;br&gt;&lt;font color=&quot;#67ab9f&quot;&gt;Content-Length&lt;/font&gt;: 345&lt;br&gt;&lt;br&gt;-123456&lt;br&gt;(more data)" style="text;align=left;verticalAlign=top;whiteSpace=wrap;rounded=1;fontFamily=monospace;labelBackgroundColor=none;spacing=10;spacingLeft=5;spacingTop=0;fillColor=#f5f5f5;fontColor=#333333;strokeColor=none;arcSize=8;fontSize=18;html=1;" vertex="1" parent="1">
          <mxGeometry x="40" y="40" width="480" height="260" as="geometry" />
        </mxCell>
        <mxCell id="ZFHk91Izi_wxEMk_nnkC-2" value="&lt;font face=&quot;monospace&quot; color=&quot;#5d837e&quot;&gt;HTTP&lt;/font&gt;&lt;font face=&quot;4Fe7x19V510fAoULusMa&quot;&gt;/&lt;font color=&quot;#cd5b92&quot;&gt;1.1 &lt;/font&gt;&lt;font color=&quot;#cd5b92&quot;&gt;&lt;font color=&quot;#000000&quot;&gt;403 Forbidden&lt;/font&gt;&lt;br&gt;&lt;/font&gt;&lt;/font&gt;&lt;div&gt;&lt;font face=&quot;4Fe7x19V510fAoULusMa&quot; color=&quot;#67ab9f&quot;&gt;Server&lt;/font&gt;&lt;font face=&quot;4Fe7x19V510fAoULusMa&quot;&gt;: Apache&lt;br&gt;&lt;font color=&quot;#67ab9f&quot;&gt;Date&lt;/font&gt;: Fri, 21 Jun 2024 12:52:39 GMT&lt;br&gt;&lt;font color=&quot;#67ab9f&quot;&gt;Accept&lt;/font&gt;: */*&lt;br&gt;&lt;font color=&quot;#67ab9f&quot;&gt;Content-Type&lt;/font&gt;: text/plain; charset=utf-8&lt;br&gt;&lt;font color=&quot;#67ab9f&quot;&gt;Cache-control&lt;/font&gt;: no-cache&lt;/font&gt;&lt;/div&gt;&lt;div&gt;&lt;font face=&quot;4Fe7x19V510fAoULusMa&quot;&gt;&lt;br&gt;&lt;/font&gt;&lt;/div&gt;&lt;div&gt;&lt;font face=&quot;4Fe7x19V510fAoULusMa&quot;&gt;&amp;lt;!DOCTYPE html&amp;gt;&lt;br&gt;&amp;lt;html lang=&quot;en&quot;&lt;/font&gt;&lt;/div&gt;&lt;div&gt;&lt;font face=&quot;4Fe7x19V510fAoULusMa&quot;&gt;(more data)&lt;br&gt;&lt;/font&gt;&lt;/div&gt;" style="text;html=1;align=left;verticalAlign=top;whiteSpace=wrap;rounded=1;fontFamily=monospace;labelBackgroundColor=none;spacing=10;spacingLeft=5;spacingTop=0;fillColor=#f5f5f5;fontColor=#333333;strokeColor=none;arcSize=8;fontSize=18;" parent="1" vertex="1">
          <mxGeometry x="660" y="40" width="480" height="260" as="geometry" />
        </mxCell>
        <mxCell id="ZFHk91Izi_wxEMk_nnkC-17" style="rounded=0;orthogonalLoop=1;jettySize=auto;html=1;exitX=1;exitY=0.5;exitDx=0;exitDy=0;fontFamily=Helvetica;fontSize=12;fontColor=default;startArrow=classic;startFill=1;endArrow=none;endFill=0;" parent="1" source="ZFHk91Izi_wxEMk_nnkC-5" target="ZFHk91Izi_wxEMk_nnkC-12" edge="1">
          <mxGeometry relative="1" as="geometry" />
        </mxCell>
        <mxCell id="ZFHk91Izi_wxEMk_nnkC-5" value="" style="rounded=1;whiteSpace=wrap;html=1;fillColor=none;dashed=1;" parent="1" vertex="1">
          <mxGeometry x="52" y="54" width="450" height="23" as="geometry" />
        </mxCell>
        <mxCell id="ZFHk91Izi_wxEMk_nnkC-6" value="" style="rounded=1;whiteSpace=wrap;html=1;fillColor=none;dashed=1;fontColor=none;noLabel=1;" parent="1" vertex="1">
          <mxGeometry x="50" y="186" width="450" height="14" as="geometry" />
        </mxCell>
        <mxCell id="ZFHk91Izi_wxEMk_nnkC-15" style="rounded=0;orthogonalLoop=1;jettySize=auto;html=1;exitX=1;exitY=0.5;exitDx=0;exitDy=0;fontFamily=Helvetica;fontSize=12;fontColor=default;startArrow=classic;startFill=1;endArrow=none;endFill=0;entryX=0.047;entryY=0.506;entryDx=0;entryDy=0;entryPerimeter=0;" parent="1" source="ZFHk91Izi_wxEMk_nnkC-7" target="ZFHk91Izi_wxEMk_nnkC-14" edge="1">
          <mxGeometry relative="1" as="geometry" />
        </mxCell>
        <mxCell id="ZFHk91Izi_wxEMk_nnkC-7" value="" style="rounded=1;whiteSpace=wrap;html=1;fillColor=none;dashed=1;arcSize=3;" parent="1" vertex="1">
          <mxGeometry x="50" y="203" width="450" height="73" as="geometry" />
        </mxCell>
        <mxCell id="ZFHk91Izi_wxEMk_nnkC-11" value="" style="rounded=1;whiteSpace=wrap;html=1;fillColor=none;dashed=1;" parent="1" vertex="1">
          <mxGeometry x="671" y="54" width="450" height="23" as="geometry" />
        </mxCell>
        <mxCell id="ZFHk91Izi_wxEMk_nnkC-12" value="&lt;font face=&quot;sans-serif&quot;&gt;Start line&lt;/font&gt;" style="text;html=1;align=center;verticalAlign=middle;resizable=0;points=[];autosize=1;strokeColor=none;fillColor=none;fontFamily=Helvetica;fontSize=16;fontColor=default;" parent="1" vertex="1">
          <mxGeometry x="545" y="50" width="90" height="30" as="geometry" />
        </mxCell>
        <mxCell id="ZFHk91Izi_wxEMk_nnkC-13" value="&lt;font face=&quot;sans-serif&quot;&gt;Empty line&lt;/font&gt;" style="text;html=1;align=center;verticalAlign=middle;resizable=0;points=[];autosize=1;strokeColor=none;fillColor=none;fontFamily=Helvetica;fontSize=16;fontColor=default;" parent="1" vertex="1">
          <mxGeometry x="540" y="178" width="100" height="30" as="geometry" />
        </mxCell>
        <mxCell id="ZFHk91Izi_wxEMk_nnkC-14" value="&lt;font face=&quot;sans-serif&quot;&gt;Body&lt;/font&gt;" style="text;html=1;align=center;verticalAlign=middle;resizable=0;points=[];autosize=1;strokeColor=none;fillColor=none;fontFamily=Helvetica;fontSize=16;fontColor=default;" parent="1" vertex="1">
          <mxGeometry x="560" y="224.5" width="60" height="30" as="geometry" />
        </mxCell>
        <mxCell id="ZFHk91Izi_wxEMk_nnkC-16" style="rounded=0;orthogonalLoop=1;jettySize=auto;html=1;exitX=1;exitY=0.5;exitDx=0;exitDy=0;fontFamily=Helvetica;fontSize=12;fontColor=default;startArrow=classic;startFill=1;endArrow=none;endFill=0;" parent="1" source="ZFHk91Izi_wxEMk_nnkC-6" target="ZFHk91Izi_wxEMk_nnkC-13" edge="1">
          <mxGeometry relative="1" as="geometry">
            <mxPoint x="500" y="193.07999999999998" as="sourcePoint" />
            <mxPoint x="550" y="193" as="targetPoint" />
          </mxGeometry>
        </mxCell>
        <mxCell id="ZFHk91Izi_wxEMk_nnkC-18" style="rounded=0;orthogonalLoop=1;jettySize=auto;html=1;exitX=0;exitY=0.5;exitDx=0;exitDy=0;entryX=1.024;entryY=0.517;entryDx=0;entryDy=0;entryPerimeter=0;fontFamily=Helvetica;fontSize=12;fontColor=default;endArrow=none;endFill=0;startArrow=classic;startFill=1;" parent="1" source="ZFHk91Izi_wxEMk_nnkC-11" target="ZFHk91Izi_wxEMk_nnkC-12" edge="1">
          <mxGeometry relative="1" as="geometry" />
        </mxCell>
        <mxCell id="ZFHk91Izi_wxEMk_nnkC-19" style="rounded=0;orthogonalLoop=1;jettySize=auto;html=1;exitX=0;exitY=0.5;exitDx=0;exitDy=0;entryX=1;entryY=0.506;entryDx=0;entryDy=0;entryPerimeter=0;fontFamily=Helvetica;fontSize=12;fontColor=default;startArrow=classic;startFill=1;endArrow=none;endFill=0;" parent="1" target="ZFHk91Izi_wxEMk_nnkC-13" edge="1">
          <mxGeometry relative="1" as="geometry">
            <mxPoint x="669" y="193.5" as="sourcePoint" />
          </mxGeometry>
        </mxCell>
        <mxCell id="ZFHk91Izi_wxEMk_nnkC-20" style="rounded=0;orthogonalLoop=1;jettySize=auto;html=1;entryX=1.005;entryY=0.518;entryDx=0;entryDy=0;entryPerimeter=0;fontFamily=Helvetica;fontSize=12;fontColor=default;startArrow=classic;startFill=1;endArrow=none;endFill=0;" parent="1" target="ZFHk91Izi_wxEMk_nnkC-14" edge="1">
          <mxGeometry relative="1" as="geometry">
            <mxPoint x="670" y="240" as="sourcePoint" />
          </mxGeometry>
        </mxCell>
        <mxCell id="pgrex3QpOTlpph6fDjvK-2" value="" style="rounded=1;whiteSpace=wrap;html=1;fillColor=none;dashed=1;fontColor=none;noLabel=1;" vertex="1" parent="1">
          <mxGeometry x="671" y="186" width="450" height="14" as="geometry" />
        </mxCell>
        <mxCell id="pgrex3QpOTlpph6fDjvK-3" value="" style="rounded=1;whiteSpace=wrap;html=1;fillColor=none;dashed=1;arcSize=3;" vertex="1" parent="1">
          <mxGeometry x="671" y="203" width="450" height="73" as="geometry" />
        </mxCell>
      </root>
    </mxGraphModel>
  </diagram>
</mxfile>
